<?xml version="1.0" encoding="UTF-8"?>
<!DOCTYPE svg PUBLIC "-//W3C//DTD SVG 1.1//EN" "http://www.w3.org/Graphics/SVG/1.1/DTD/svg11.dtd">
<!-- Creator: CorelDRAW 2018 (64-Bit Evaluation Version) -->
<svg xmlns="http://www.w3.org/2000/svg" xml:space="preserve" width="2.12854in" height="2.12576in" version="1.1" style="shape-rendering:geometricPrecision; text-rendering:geometricPrecision; image-rendering:optimizeQuality; fill-rule:evenodd; clip-rule:evenodd"
viewBox="0 0 346.06 345.61"
 xmlns:xlink="http://www.w3.org/1999/xlink">
 <defs>
  <style type="text/css">
   <![CDATA[
    .fil7 {fill:#3F5C6C}
    .fil5 {fill:#547480}
    .fil0 {fill:#7F8C8D}
    .fil6 {fill:#94A4A4}
    .fil8 {fill:#A56A43}
    .fil4 {fill:#CB8151}
    .fil2 {fill:#CB8251}
    .fil1 {fill:#EBEFF0}
    .fil3 {fill:#FB7B76}
   ]]>
  </style>
 </defs>
 <g id="Layer_x0020_1">
  <metadata id="CorelCorpID_0Corel-Layer"/>
  <g id="_3039184025520">
   <path class="fil0" d="M49.97 187.42c-4.28,15.07 -26.8,9.43 -22.95,-5.98 3.73,-14.95 27.21,-9.02 22.95,5.98zm-3.02 87.41c9.59,-1.41 15.03,-2.99 23.71,-5.87 3.99,-1.32 19.18,-6.18 20.64,-9.13 0.59,-5.83 -3.04,-10.68 -0.68,-26.59 1.23,-8.33 3.89,-15.45 7.29,-22.01 20.5,-39.58 71.49,-50.56 106.97,-23.56 2.85,2.17 5.13,4.95 7.74,6.76l17.56 -13.34c5.57,-4.68 11.62,-9.9 15.46,-15.28l-13.1 -23.92c-1.8,-3.38 -7.38,-12.81 -7.9,-15.24 -2.26,-1.96 -15.9,-27.32 -18.47,-32.25 -2.86,-5.48 -5.99,-11.09 -9.1,-16.7 -2.38,-4.3 -7.38,-12.19 -8.76,-16.41 -5.86,3.38 -12.03,6.33 -17.89,9.89l-13.6 7.31c-1.91,1.07 -2.33,1.49 -4.42,2.55l-18.06 9.82c-3.01,1.8 -5.83,3.41 -8.88,5.05 -1.78,0.95 -3.04,1.44 -4.62,2.35 -1.58,0.92 -2.44,1.54 -4.44,2.53 -13.41,6.63 -47.7,26.06 -62.96,34.6 -1.72,0.96 -2.91,1.38 -4.63,2.34l-22.91 12.63c-7.54,4.58 -13.54,6.38 -18.6,12.76l-4.04 6.41c-3.67,7.91 -3.72,14.86 -1.02,22.88 1.36,4.05 9.67,17.98 12.41,23.13l32.29 59.31z"/>
   <path class="fil1" d="M156.98 196.83c9.5,-0.94 17.97,1.14 25.48,4.88 17.8,8.85 22.16,25.81 38.89,39.18 3.04,2.43 5.21,4.33 8.53,6.79 15.14,11.17 35.6,15.6 37.91,24.87 2.74,11.01 -4.48,16.16 -13.01,18.12 -8.97,2.06 -80.69,1.2 -92.19,1.05 -39.1,-0.51 -59.4,-41.12 -43.25,-70.23 6.68,-12.05 19.14,-22.83 37.63,-24.65zm-65.67 63c0.12,0.15 0.24,0.37 0.3,0.49l1.41 3.69c3.89,13.57 10.36,19.95 11.96,23.75l8.71 9.23c11.99,10.6 20.38,13.22 34.36,17.2l2.04 0.75c8.13,0.02 17.07,0.67 25.78,0.67l54.36 0c8.94,0 18.09,-0.64 26.48,-0.67 0.15,-0.09 0.41,-0.36 0.49,-0.21l3.77 -1.11c1.69,-0.49 3.07,-0.94 4.71,-1.56 8.16,-3.09 15.6,-8.7 20.26,-15.97 6.73,-10.49 9.18,-26.1 2.11,-38.28 -10.24,-17.62 -29.97,-16.83 -50,-34.32 -2.6,-2.27 -4.44,-3.19 -6.43,-6.09 -2.5,-1.3 -7.6,-8.07 -9.79,-11.14 -1.77,-2.48 -2.65,-3.88 -4.35,-6.09 -1.56,-2.03 -3.58,-3.72 -4.85,-5.74 -2.62,-1.8 -4.89,-4.59 -7.74,-6.76 -35.47,-27 -86.47,-16.02 -106.97,23.56 -3.39,6.56 -6.05,13.68 -7.29,22.01 -2.36,15.91 1.26,20.76 0.68,26.59z"/>
   <path class="fil2" d="M256.7 314.95c-8.39,0.03 -17.54,0.67 -26.48,0.67l-54.36 0c-8.71,0 -17.66,-0.65 -25.78,-0.67 -10.03,-0.01 -133.21,-0.94 -140.05,0.72 -13.46,3.26 -11.24,21.61 -5.72,26.58 3.88,3.5 9.48,3.36 16.85,3.36l303.13 0c11.81,0 23.56,0.31 21.53,-18.74 -0.63,-5.88 -4.18,-9.71 -9.14,-11.07 -6.65,-1.82 -67.91,-0.86 -79.98,-0.85z"/>
   <path class="fil3" d="M161.43 255.71c-1.44,-8.93 4.71,-15.99 11.82,-17.24 8.82,-1.55 16.03,4.58 17.36,11.7 3.76,20.2 -26.28,23.48 -29.18,5.54zm-4.45 -58.88c-18.49,1.82 -30.95,12.6 -37.63,24.65 -16.15,29.11 4.16,69.72 43.25,70.23 11.5,0.15 83.22,1.01 92.19,-1.05 8.52,-1.95 15.75,-7.11 13.01,-18.12 -2.31,-9.27 -22.77,-13.69 -37.91,-24.87 -3.33,-2.46 -5.49,-4.35 -8.53,-6.79 -16.73,-13.37 -21.09,-30.33 -38.89,-39.18 -7.51,-3.74 -15.99,-5.82 -25.48,-4.88z"/>
   <path class="fil4" d="M306.2 24.84c15.8,-4.96 20.86,18.47 6.95,22.5 -15.39,4.46 -20.98,-18.1 -6.95,-22.5zm-92 22.63l20.04 36.12c3.39,-0.71 12.37,-6.48 16.2,-8.36l24.25 -13.38c7.12,-4.39 8.07,-2.21 12.19,1.33 3.25,2.79 8.05,5.28 12.24,6.58 12.89,4 28.08,0.19 36.52,-8.97 19.65,-21.34 8.96,-54.76 -19.07,-60.04 -12.47,-2.35 -20.05,1.25 -29.66,6.43 -1.84,0.99 -2.1,1.34 -3.94,2.33 -1.69,0.9 -2.54,1.25 -4.08,2.19l-63.47 34.81c-0.94,0.64 -0.55,0.34 -1.2,0.98z"/>
   <path class="fil5" d="M188.32 61.29c1.38,4.22 6.38,12.12 8.76,16.41 3.11,5.61 6.24,11.22 9.1,16.7 2.57,4.92 16.21,30.29 18.47,32.25 4.21,3.37 9.83,5.09 15.51,1.72 12.43,-7.37 2.14,-23.65 -2.87,-37.22 -0.91,-2.47 -1.77,-5.47 -3.06,-7.56l-20.04 -36.12c-1.96,0.36 -4.49,2.03 -6.49,3.14 -2.43,1.35 -3.64,2.13 -6.29,3.46 -4.62,2.33 -8.54,4.98 -13.1,7.21z"/>
   <path class="fil6" d="M46.95 274.83c6.67,9.3 9.75,26.03 22.19,24.74 3.7,-0.38 14.39,-4.13 18.32,-5.44l17.52 -6.36c-1.59,-3.8 -8.07,-10.19 -11.96,-23.75l-1.41 -3.69c-0.06,-0.12 -0.18,-0.34 -0.3,-0.49 -1.46,2.95 -16.65,7.81 -20.64,9.13 -8.68,2.88 -14.12,4.46 -23.71,5.87z"/>
   <path class="fil6" d="M212.62 194.43c1.26,2.02 3.28,3.7 4.85,5.74 1.7,2.21 2.59,3.61 4.35,6.09 2.19,3.07 7.3,9.84 9.79,11.14l12.36 -9.96c2.32,-2.06 3.67,-2.99 5.92,-5.23 6,-5.98 11.44,-8.05 3.79,-22.23l-8.04 -14.17c-3.84,5.38 -9.89,10.6 -15.46,15.28l-17.56 13.34z"/>
   <path class="fil1" d="M161.43 255.71c2.9,17.94 32.94,14.66 29.18,-5.54 -1.33,-7.12 -8.54,-13.25 -17.36,-11.7 -7.12,1.25 -13.26,8.31 -11.82,17.24z"/>
   <path class="fil7" d="M49.97 187.42c4.26,-15 -19.23,-20.92 -22.95,-5.98 -3.84,15.41 18.67,21.05 22.95,5.98z"/>
   <path class="fil8" d="M306.2 24.84c-14.03,4.4 -8.44,26.96 6.95,22.5 13.92,-4.03 8.85,-27.46 -6.95,-22.5z"/>
  </g>
 </g>
</svg>
