<svg xmlns="http://www.w3.org/2000/svg" width="270.271" height="204.07" viewBox="0 0 270.271 204.07">
  <g id="live_animal" transform="translate(0.025 -0.01)">
    <g id="_1671302616192" transform="translate(-0.025 0.01)">
      <g id="Group_1780" data-name="Group 1780">
        <path id="Path_111" data-name="Path 111" d="M76.2,134.663c-3.431-2.246-11.237-3.5-15.51-2.874-7.112,1.047-3.461.368-5.606,3.405-.893,1.266-2.425,5.9-2.9,7.545l-1.1,12.15-6.381-.225c2.849,1.327,5.84.128,8.321,13.549,1.445,7.821-.96,15.249.582,21.963,7.765,4.656,11.573.812,16.362-1.935,7.117-4.079,9.6-1.96,16.99.914,10.869,4.232,20.058,4.4,30.881,9.337l1.424,2.108a22.917,22.917,0,0,1,1.516,3.3c1.067,2.752,1.664,5.018,2.644,7.785,2.527,9.623,5.662,20.645,2.42,32.653,6.7,1.96.01-.015,5.253,3.053,3.359,1.965-.271,1.2,5.82,1.572l2.91-.975c.026-7.591-1.358-13.794-2.2-20.941-1.052-8.97.776-14.381-.056-22.371L139,188.017c-.317-.286-.924-1.052-1.133-.7l-3.405-1.761c-.026-.01-3.512-1.225-4.038-1.475,1.389-13.258,20.416-20.768,23.515-23.54,4.549,8.715,8.48,8.878,15.622,14.7,7.382,6.014,8.628,10.634,20.569,9.572,10.338-.919,18.062,1.623,27.931.827,12.921-1.047,14.626-4.819,27.716-3.242.674-10.425,4.738-42.853-1.756-50.94-6.249-7.78-5.4.562-2.992-13.085l-3.62,3.385c-.776.817-1.383,1.838-2.2,2.685-18.562-15.183-83.577-2.308-105.861-.056-9.3.939-12.829-2.884-22.672-.526L77.792,140.018c-5.473-6.279-2.073-4-1.593-5.34Z" transform="translate(-21.867 -57.345)" fill="#9a4d0b" fill-rule="evenodd"/>
        <path id="Path_112" data-name="Path 112" d="M54.307,77.328c-.48,1.343-3.88-.939,1.593,5.34L84.785,66.505c9.843-2.359,13.376,1.465,22.672.526,22.284-2.256,87.3-15.127,105.861.056.812-.853,1.419-1.874,2.2-2.685l3.62-3.385c-2.4,13.646-3.257,5.3,2.992,13.085,6.494,8.087,2.43,40.515,1.756,50.94,5.345-2.961.648-.332,5.172-4.692-.459-5.131-.061-7.025,1-12.181.01-.051,1.138-4.661,1.225-4.855,2.476-5.437.077-2.144,4.038-4.814-2.507-10.455,7.77-20.3,9.909-30.121,9.516,5.258-2.1-2.18,3.175,1.649-.107-6.872-.735-6.106,2.583-10.838,1.057,8.791-4.952,38.891,15.479,37.712-.6-21.095-6.8-2.435-10.981-38.907-4.8-41.909-35.813-39.131-52.262-49.189C189.1.168,181.524-3.666,163.415,4.569c-12.62,5.738-26.608,7.3-38.253,12.375-17.684,7.714-18.19,32.99-42.373,34.629C65.146,52.772,65.482,29.406,47.737,8.7,33.376,8.638,32.37,13.641,20.25,13.814c-7.152.1-10.226-.909-15.188,2.292-3.727,2.4-9.976,11.722,1.47,13.968,14.264,2.793,2.3-.107,14.764,4.789,26.164,10.277,8.23,4.671,26.858,26.47C57.09,71.789,60.01,70.8,61.174,75.077c-6.213,3.288-1.128,1.082-6.877,2.262Z" transform="translate(0.025 -0.01)" fill="#e4a960" fill-rule="evenodd"/>
        <path id="Path_113" data-name="Path 113" d="M219.757,246.254c3.359-1.317,3.022-1.276,5.121-3.175l3.962-5.115c.322.26.694.419.8.944l1.343,1.608c1.159.985.878,1.266,2.226-.485l1.215-2.068c11.349,1.435,16.076,7.357,20.936,16.25,9.838,17.986,11.864,11.18,12.732,25.434,5.769-3.257,4.375-.531,7.53-7.117A83.621,83.621,0,0,1,280.295,264c11.762-.1,15.76,2.588,26.236-1.644,7.168-2.9,6.045-.4,12.385-.919,9.225-.761,4.972-1.23,7.26-8.572,5.539,2.236,3.737,4.038,8.148,9.787l6.662,7.484c.214.3,1.914,2.711,2.369,3.375,3.783,5.539,4.431,4.727,3.027,11.829,1.986,4.176.511,7.5-1.338,10.4-4.253,6.688-.771-4.416-3.569,7.265h12.181c2.466-7.54-.73-13.794,4.283-19.293-.459-.2-.842-1.445-.929-1.174l-1.3-3.38c.286-2.624,1.246-1.761,3.487-4.687-6.366.766-2.2.735-5.35-.521-3.375-8.148-2-10.6,2.231-17.889,6.621-11.405,3.063-11.808,5.274-16.51l2.542,5.335c-.434-10.619-2.328-6.688,7.888-19.951,2.006-2.6-.342-.572,2.527-2.925-.99-4.7.306-1.848-1.848-4.753-1.675-2.262-2.114-2.108-4.176-3.676,1.072,9.1-1.833,16.347-8.561,13.7-.929,4.513.531,2.369-1.909,4.932-4.758-.694-5.253-3.181-10.491-5.708-3.512-1.695-8.909-2.808-13.508-3.62l-.684-3.609c-4.528,4.36.168,1.731-5.172,4.692-13.09-1.583-14.795,2.2-27.716,3.242-9.868.8-17.6-1.746-27.931-.827-11.941,1.062-13.182-3.558-20.569-9.572-7.142-5.82-11.073-5.988-15.622-14.7-3.1,2.772-22.121,10.282-23.515,23.54.526.25,4.013,1.465,4.038,1.475l3.405,1.761c.209-.347.817.419,1.133.7l-1.429,16.663Z" transform="translate(-104.056 -98.939)" fill="#e6dac9" fill-rule="evenodd"/>
        <path id="Path_114" data-name="Path 114" d="M317.11,328.292l3.267,11.124c-1.68,7.939-3.247,4.676-7.627,12.227h11.982c4.125-15.152,1.828-22.044,2.838-28.37l1.23,2.211c.072.153,5.544,11.482,3.691,17.506-2.568,8.367,1.031-2.2-4.692,5.59,4.447,0,6.346.679,9.613-2.057,2.415-2.027,2.461-7.857.439-16.444l3.635-3.308c1.986-2.062,1.144-6.7,1.21-9.5,4.579-.735,12.283-1,16.709,2.573l3.472,6.877.184-6.846,9.087-.015,3.395,7.382-.633-6.33c6.427,3.625,4.365,3.349,12.543,4.732,3.206,15.933-7.025,13.11-10.706,23.948,9.123.6,8.766,2.338,12.732-5.126,2.144-4.028,2.92-6.055,5.937-10.5,1.4-7.1.756-6.29-3.027-11.829-.454-.669-2.154-3.084-2.369-3.375l-6.662-7.484c-4.406-5.748-2.609-7.551-8.148-9.787-2.292,7.346,1.96,7.816-7.26,8.572-6.341.521-5.217-1.976-12.385.919-10.476,4.232-14.473,1.552-26.236,1.644a84.173,84.173,0,0,0-4.676,8.531c-3.16,6.581-1.761,3.86-7.53,7.117Z" transform="translate(-153.072 -147.583)" fill="#c6b7a6" fill-rule="evenodd"/>
        <path id="Path_115" data-name="Path 115" d="M460.6,164.041c6.029,5.095,18.3,18.721,20.329,29.855,6.729,2.645,9.634-4.6,8.561-13.7-6.524-6.729-15.453-31.132-15.806-44.625-5.274-3.829,6.341,3.609-3.175-1.649C468.37,143.742,458.1,153.585,460.6,164.041Z" transform="translate(-225.253 -65.556)" fill="#965925" fill-rule="evenodd"/>
        <path id="Path_116" data-name="Path 116" d="M501.124,263.951a127.7,127.7,0,0,1,1.256,16.842c.005,7.51.347,11.471-5.953,12.748-2.236,2.925-3.2,2.057-3.487,4.687l1.3,3.38c.087-.271.47.975.929,1.174l14.5-1.838c-.72-20.839,2.063-40.821,1.863-59.864-2.869,2.354-.521.322-2.527,2.925-10.216,13.268-8.321,9.332-7.888,19.951Z" transform="translate(-241.272 -118.009)" fill="#c68b55" fill-rule="evenodd"/>
        <path id="Path_118" data-name="Path 118" d="M170.809,289.667c-.98-2.767-1.577-5.029-2.644-7.785a23.166,23.166,0,0,0-1.516-3.3l-1.424-2.108c-.914,9.3-6.918,27.742-12.671,34.3-3.114,3.548.092.817-4.375,2.578-6.279,2.481-4.268-.465-6.667,4.635,1.669,2.43-2.384,5.646,16.817,4.273,2.379-3.987,8.5-27.328,12.487-32.6Z" transform="translate(-69.254 -135.332)" fill="#ce9a6d" fill-rule="evenodd"/>
        <path id="Path_120" data-name="Path 120" d="M410.739,344.341l-.189,11.124c4.406,1.281,5.672.51,9.644.745l2.874-2.124.332-9.225L420,337.48l-9.087.015-.184,6.846Z" transform="translate(-200.944 -165.195)" fill="#9a4d0b" fill-rule="evenodd"/>
        <path id="Path_121" data-name="Path 121" d="M35,179.216l6.381.225,1.1-12.15c-11.589.95-11.533.664-17.593,7.025C28.3,178.236,29.2,178.7,35,179.216Z" transform="translate(-12.171 -81.89)" fill="#72320b" fill-rule="evenodd"/>
        <path id="Path_122" data-name="Path 122" d="M379.87,348.918l4.084-.725c1.516-9.445,4.079-7.285,4.145-13.646-4.426-3.574-12.135-3.308-16.709-2.573l8.546,1.072-.066,15.872Z" transform="translate(-181.776 -162.277)" fill="#e4a960" fill-rule="evenodd"/>
        <path id="Path_123" data-name="Path 123" d="M212.73,370.9c-6.091-.373-2.461.393-5.82-1.572-5.243-3.068,1.455-1.092-5.253-3.053-1.613,3.461-3.084,6.82-1.144,11.344,7.806.245,10.991,1.016,12.212-6.724Z" transform="translate(-97.682 -179.287)" fill="#181310" fill-rule="evenodd"/>
        <path id="Path_124" data-name="Path 124" d="M414.951,373.455c-3.972-.235-5.243.536-9.644-.745l-5.468,8.551c9.516-.628,13.437,1.583,15.116-7.806Z" transform="translate(-195.701 -182.439)" fill="#342410" fill-rule="evenodd"/>
        <path id="Path_125" data-name="Path 125" d="M256.583,261.8c-4.309-4.962-7.311-7.673-16.883-8.715C241.1,261.927,247.072,262.08,256.583,261.8Z" transform="translate(-117.316 -123.888)" fill="#754911" fill-rule="evenodd"/>
      </g>
      <ellipse id="Ellipse_31" data-name="Ellipse 31" cx="2.89" cy="1.087" rx="2.89" ry="1.087" transform="translate(33.549 17.853)" fill="#834c0c"/>
      <ellipse id="Ellipse_32" data-name="Ellipse 32" cx="2.889" cy="1.089" rx="2.889" ry="1.089" transform="translate(47.819 98.983) rotate(-54.845)" fill="#72320b"/>
      <ellipse id="Ellipse_33" data-name="Ellipse 33" cx="2.889" cy="1.089" rx="2.889" ry="1.089" transform="translate(125.106 114.646) rotate(-28.73)" fill="#676662"/>
      <path id="Path_126" data-name="Path 126" d="M258.67,201.267c8.112-2.68,19.339.429,16.183,15.162-4.253-11.145-7.545-13.442-11.757-8.832A25.243,25.243,0,0,1,258.67,201.267Z" transform="translate(-126.601 -98.096)" fill="#231303" fill-rule="evenodd"/>
    </g>
  </g>
</svg>
