<svg xmlns="http://www.w3.org/2000/svg" width="169.126" height="204.07" viewBox="0 0 169.126 204.07">
  <g id="meat" transform="translate(0.003)">
    <g id="_1671307369600">
      <path id="Path_127" data-name="Path 127" d="M72.41,54.76c.29-1.57,1.44-2.45,2.55-3.36,8.94-7.29,26.24-4.24,29.52,3.57,4.4,7.07-5.29,14.99-16.78,14.73a22.354,22.354,0,0,1-12.66-4.03c-1.78-1.28-6.76-7.75-2.64-10.91ZM81.9,14.65C58.94,17.2,42.41,27.85,32.08,40.01c-34.81,40.96-19.3,132.4,20.06,128.32,22.05-2.28,14.34-23.05,29.34-45.45,11.9-17.76,27.06-16.52,47.47-27.47a87.923,87.923,0,0,0,16.78-11.12c1.02-.88,1.3-1.56,2.34-2.43,6.42-5.37,12.71-18.85,9.46-31.31-2.56-9.81-10.13-16.86-16.21-21.27C126.76,18.71,104.53,12.13,81.9,14.64Z" fill="#ff4755" fill-rule="evenodd"/>
      <path id="Path_128" data-name="Path 128" d="M81.91,14.66c22.63-2.51,44.86,4.06,59.42,14.64,6.08,4.41,13.65,11.46,16.21,21.27,3.25,12.46-3.04,25.94-9.46,31.31-1.04.87-1.32,1.55-2.34,2.43a88.238,88.238,0,0,1-16.78,11.12c-20.4,10.95-35.57,9.71-47.47,27.47-15.01,22.4-7.29,43.17-29.34,45.45C12.79,172.43-2.72,80.99,32.09,40.03,42.42,27.87,58.95,17.22,81.91,14.67ZM87.56,0h9.22q4.455.21,8.85.82c11.97,1.67,23.3,5.34,31.92,10.32,2.35,1.36,4.62,2.49,6.76,4,8.98,6.32,15.04,12.64,19.93,22.32,4.08,8.08,4.78,16.51,4.78,26.54-1.46,3.51.43,18.32-14.44,30.76-8.64,7.23-17.92,11.03-29.39,16.05-11.02,4.82-21.6,8.38-30.09,15.32-22.38,18.29-6.07,45.88-36.79,54.1-15.14,4.05-26.12-1.97-33.8-9.4C.82,147.92,1.19,107.34.05,104.45c0-15.51,1.04-25.66,4.15-38.12C6.53,57,9.09,51.4,13.2,43.45c3.56-6.87,8.25-12.43,13.65-17.83C42.73,9.74,65.04,1.06,87.57.01Z" fill="#fe7b8a" fill-rule="evenodd"/>
      <path id="Path_129" data-name="Path 129" d="M.04,104.44c0,5.37-.22,13.75.34,18.77.23,2.09-.02,3.96.29,6.09.3,2.04.39,3.86.6,5.78a109.535,109.535,0,0,0,14.48,42.91c.84,1.36,1.66,2.59,2.56,3.82,8.62,11.68,19.67,20.56,35.19,22.2l.59.06h8.1c18.8-2.05,24.16-19.15,30.76-37.41,2.87-7.93,6.34-19.8,13.81-24.45,2.7-1.68,5.25-3.1,8.19-4.57,15.94-7.96,37.81-15.51,47.22-29.3,8.34-12.23,6.85-24.6,6.85-44.33-1.46,3.51.43,18.32-14.44,30.76-8.64,7.23-17.92,11.03-29.39,16.05-11.02,4.82-21.6,8.38-30.09,15.32-22.38,18.29-6.07,45.88-36.79,54.1-15.14,4.05-26.12-1.97-33.8-9.4C.82,147.93,1.19,107.35.05,104.46Z" fill="#934a35" fill-rule="evenodd"/>
      <path id="Path_130" data-name="Path 130" d="M72.41,54.76c.47,5.1,17.69,12.1,29.17,3.34,1.72-1.32,1.53-1.83,2.9-3.13C101.2,47.16,83.9,44.11,74.96,51.4,73.85,52.31,72.69,53.2,72.41,54.76Z" fill="#f3e8d2" fill-rule="evenodd"/>
      <path id="Path_131" data-name="Path 131" d="M104.49,54.98c-1.38,1.3-1.18,1.81-2.9,3.13-11.48,8.75-28.69,1.76-29.17-3.34-4.13,3.16.86,9.64,2.64,10.91a22.354,22.354,0,0,0,12.66,4.03c11.48.27,21.18-7.66,16.78-14.73Z" fill="#e5d6be" fill-rule="evenodd"/>
    </g>
  </g>
</svg>
