<svg xmlns="http://www.w3.org/2000/svg" width="62.032" height="56.289" viewBox="0 0 62.032 56.289">
  <path id="chef_icon" d="M50.023,33.013a12.006,12.006,0,1,0-6.679-21.987m0,0a12.013,12.013,0,0,0-22.662,0A12.006,12.006,0,1,0,14,33.013M43.345,11.026a12.007,12.007,0,0,1,.3,6.979M24.4,15a12.007,12.007,0,0,0-3.722-3.977M14,46.52a50.944,50.944,0,0,1,18.01-3,50.944,50.944,0,0,1,18.01,3M11,57.026a68.412,68.412,0,0,1,21.011-3,68.412,68.412,0,0,1,21.011,3m-3-27.014V54.024M14,30.011V54.024" transform="translate(-0.997 -2.002)" fill="none" stroke="#000" stroke-linecap="round" stroke-linejoin="round" stroke-width="2"/>
</svg>
