<svg xmlns="http://www.w3.org/2000/svg" xmlns:xlink="http://www.w3.org/1999/xlink" width="654.595" height="631.298" viewBox="0 0 654.595 631.298">
  <defs>
    <linearGradient id="linear-gradient" x1="0.106" y1="0.142" x2="0.891" y2="0.923" gradientUnits="objectBoundingBox">
      <stop offset="0" stop-color="#cbd9de"/>
      <stop offset="1" stop-color="#fff" stop-opacity="0"/>
    </linearGradient>
  </defs>
  <g id="globe_vector" opacity="0.45">
    <path id="Path_6" data-name="Path 6" d="M448.809,61.019c29.789,7.069,10.6,78.512,6.816,102.494-14.39-4.8-77.249-31.556-84.57-40.139,13.38-20.953,51.752-64.627,78.007-62.607ZM243.063,572.481a58.44,58.44,0,0,1-4.8,4.039c-6.059-.757-10.855-3.282-15.9-5.806a142.4,142.4,0,0,0,27.769,14.39c4.8,1.767,13.38,3.787,22.216,5.554-8.836-2.777-16.914-5.806-21.458-9.088l3.787-3.787a118.244,118.244,0,0,1-11.36-5.049Zm-53.772-37.362c1.01-7.069,2.272-14.642,3.534-20.953a83.151,83.151,0,0,1-3.534-13.632,60.875,60.875,0,0,1-1.262-17.671l-.252,1.01a102.876,102.876,0,0,1-15.652-8.078,98.721,98.721,0,0,1,2.02,11.108l.5,2.777a46.616,46.616,0,0,1,9.341,6.564l-3.282,18.934a103.328,103.328,0,0,0,8.583,19.943ZM311.224,631.3c35.6-1.515,79.017-7.069,118.146-15.652l-1.767-1.262c-6.564-4.8-11.865-10.35-15.147-16.409-6.059,2.525-11.613,4.8-14.642,6.059-18.681,7.069-41.654,2.02-62.355.757l7.321-5.3c8.331-4.292,16.157-8.836,24.235-13.632a196.744,196.744,0,0,1-31.3,3.787c-2.524,1.262-5.049,2.272-7.321,3.282-11.108,4.544-11.108,5.049-23.478,5.806a19.2,19.2,0,0,1,4.8,3.029,19.492,19.492,0,0,1,6.564,9.846L343.79,615.4c.252,0,.757.252,1.01.252a1.914,1.914,0,0,1,1.01.5l-20.2,3.534c-2.777.252-6.059.5-9.088.757a27.679,27.679,0,0,1-3.029,7.826,26.6,26.6,0,0,1-1.767,2.777Zm186.055-36.353q5.3-2.272,9.846-4.544l3.029-1.767c-2.777-.5-5.3-.757-8.078-1.515a19.924,19.924,0,0,1-7.573-3.029,107.344,107.344,0,0,1-13.127,5.806c2.524,1.01,4.8,2.02,7.069,2.777a59.813,59.813,0,0,0,9.088,2.272Zm18.934-52.509c14.39-15.147,41.654-45.693,45.188-46.2,10.35-1.515,19.944-2.777,28.527-4.8a69.558,69.558,0,0,0,1.767-12.37c-8.331,2.525-18.681,4.8-25.5,4.544l15.9-26.507,4.8-9.341a71.27,71.27,0,0,0-6.311-12.37c-3.787,8.078-8.078,15.9-12.622,23.73-2.777,4.544-5.3,8.583-8.078,13.127-3.282,5.049-6.564,9.341-8.836,13.38l-22.72.252-52-5.3c4.8-8.836,11.108-16.157,16.409-24.992,5.554-9.341,9.593-17.166,14.895-26,3.282-5.554,8.078-13.885,12.875-22.72a80.5,80.5,0,0,0-15.147,3.029c-2.524,5.049-5.3,9.845-8.078,14.642-10.6,18.681-26.759,41.654-33.576,53.772l-4.544-.757a163.066,163.066,0,0,1-1.01,18.681,97.346,97.346,0,0,1-2.272,12.37,88.814,88.814,0,0,0,11.108-17.419c23.73,1.767,44.936,8.078,70.686,7.321l3.534.252c-3.282,3.534-10.6,12.875-14.39,16.409C515.2,527.04,508.892,533.6,499.046,542.692c5.554-1.262,11.613-.757,17.167,0Zm92.4-145.916.252-.5c1.262-4.039,2.524-9.845,4.039-15.4a82.126,82.126,0,0,0-10.6-7.826c-1.262,4.8-2.272,9.593-3.787,14.137a93,93,0,0,1,10.1,9.845Zm37.867-47.208a18.878,18.878,0,0,0,7.069-7.069c1.767-4.039.757-12.118.505-17.419-2.525,2.02-6.059,9.088-13.885,14.642a22.213,22.213,0,0,1-2.525,1.515c2.777,2.525,5.806,5.3,8.836,8.078ZM621.232,328.11c1.262-22.468-.757-46.2-5.049-68.919l-11.36.252,1.01,6.059c2.02,12.875,3.787,35.6,3.534,55.539A113.07,113.07,0,0,1,621.232,328.11ZM604.065,212.993c-1.262-3.282-2.525-6.311-3.787-9.341-4.8,0-9.088-.252-13.127-.5,1.262,3.282,2.777,6.311,4.544,9.846Zm3.029-50.742q-1.515-3.787-3.787-8.331c-6.816-12.622-21.711-32.061-30.041-39.635-24.74-22.468-54.277-43.674-84.318-58.821-8.078-4.039-17.167-8.331-21.963-12.118-8.583-7.069-22.468-23.983-32.314-27.264,8.583,7.321,12.622,13.885,14.895,20.448-19.943-7.573-35.09-15.652-56.8-22.216-25.5-7.826-80.531-20.7-109.563-10.6-14.137,5.049-20.2,11.36-21.206,28.022-14.895,3.029-36.605,11.108-48.975,17.419-21.963,9.341-47.965,26.76-66.142,41.907l-26,24.74c-13.632-15.652,1.01-48.47-6.311-41.4-22.973,13.127-8.836,31.556-3.787,53.014C94.623,150.891,71.4,178.155,62.057,209.964L51.2,238.743c-5.554-4.8-10.855-18.176-13.885-27.769-6.059-19.943-1.767-20.953-1.01-37.615-7.573,17.167-15.147,18.934-9.341,42.411,5.049,20.448,17.167,34.838,18.429,38.877.757,2.524-7.573,39.634-8.583,47.208-2.272,19.439-1.01,36.353-1.767,55.539-5.806-6.059-14.39-23.225-18.934-32.566-7.826-15.9-11.36-30.041-14.642-37.11-4.544,16.157,2.272,63.112,6.816,79.774,7.573,28.274,21.458,55.539,37.615,78.259,20.953,29.537,10.855,20.2,24.992,45.441,18.934,33.828,34.081,50.742,60.335,76.744,13.885,13.885,43.674,30.8,68.666,42.411a162.493,162.493,0,0,1-22.468-17.419,156.071,156.071,0,0,1-30.546-37.615c-6.059-8.078-11.36-16.662-12.622-21.711l3.787,3.029A165.566,165.566,0,0,1,133,517.7c-2.524-2.02-5.049-3.787-6.816-5.554-7.826-7.069-17.671-52.509-16.662-64.627,8.078,5.554,52,35.09,60.588,41.149,2.524-3.534-5.3-13.38-.757-14.39-15.147-10.855-53.519-38.12-61.85-42.916.252-20.953,3.534-86.842,10.855-101.989,21.458,15.652,63.617,46.451,97.95,65.637l-8.836,26.255-8.078,23.73-7.069,22.72,1.515-2.02a24.123,24.123,0,0,1,13.127-7.573V456.1a3.6,3.6,0,0,0,.5-1.01c0,.252.5-.757.5-1.01,4.039-8.583-2.525,6.059,1.01-2.02l9.341-31.556,8.078-20.448c6.564,2.525,11.108,7.321,18.429,12.875-.5-3.787-.757-8.331-1.01-13.127a145.2,145.2,0,0,0-12.37-10.855c1.767-7.573,24.488-63.87,27.012-66.647,2.525-7.574,18.176-42.664,22.468-47.713,10.35,4.039,26.255,16.157,36.858,18.681,5.3,3.787,18.681,10.35,33.323,16.914,1.262-2.272,2.525-4.8,3.787-7.321l1.01-2.02.5-.757c-9.088-4.544-20.953-10.855-26.255-11.613-2.272-2.272-39.635-22.468-43.674-24.235.757-2.02,26.267-50.237,28.286-54.276-3.534.757-8.078-1.262-11.36,0-1.262.5-25,48.722-26.266,49.227L244.325,239l-10.1,5.806,36.1,22.973C267.3,278.63,225.644,374.056,221.1,382.639c-21.711-8.078-84.318-50.742-98.455-66.647,4.292-43.926,24.235-82.8,49.228-118.4.5.252,60.335,45.693,62.355,47.208.252-2.272,5.3-7.069,7.826-7.826-3.029-2.777-63.112-48.723-64.122-50.237,20.448-31.809,51.5-65.132,83.056-86.59a232.844,232.844,0,0,1,32.818-19.186l26.507,21.963,33.071,23.225c-2.525,4.039-5.554,7.573-8.331,11.865-3.282,4.8-5.806,9.341-9.341,13.885-3.787,7.573-11.108,17.671-16.157,26L303.9,204.915c4.544-.5,9.341-.757,14.39-1.01,5.3-9.593,10.1-17.671,12.37-21.458,5.554-9.341,11.865-18.176,16.409-27.012,2.02-2.272,5.554-7.826,7.826-11.36,2.524-3.534,5.806-7.826,8.078-11.613,31.809,17.167,56.8,29.032,88.862,41.654-.252,6.311-6.564,26-12.37,43.421a88.173,88.173,0,0,1,12.622-2.02c5.806-16.914,10.1-30.546,11.613-36.1,8.078,2.272,16.157,4.292,24.235,6.311-2.02-4.544-2.272-8.331-1.01-12.118-8.078-2.272-15.147-4.544-19.439-6.816,10.1-44.431,14.39-62.355,2.777-105.776,6.059,3.029,18.176,17.671,24.74,23.73.5,1.01,19.186,26,28.527,44.683a277.366,277.366,0,0,1,13.127,32.313c4.8,0,9.341.252,13.38.252-.5-1.767-1.01-3.534-1.515-5.049-3.787-11.36-12.875-26.507-15.147-35.343,6.311,4.039,22.215,28.527,31.051,41.149,3.534,0,6.816,0,10.35-.252l4.544-.252c-10.6-17.419-21.711-32.566-38.12-51.752-11.36-13.38-32.566-33.071-46.451-46.7,3.029,1.515,7.573,4.8,11.613,7.069C530.855,85.506,585.636,131.7,595.987,162H607.6ZM313.749,541.177l-22.72-7.826c3.029-6.816,35.848-49.48,40.392-61.093a105.01,105.01,0,0,0,6.059-8.836,46.609,46.609,0,0,0-9.845-7.573,28.87,28.87,0,0,0-4.292,8.331l-42.664,62.607-40.392-16.409a40.173,40.173,0,0,0,3.282,5.554c11.613,15.147,33.576,23.478,57.054,26.76a170.813,170.813,0,0,0,22.468,1.515L313.5,541.43ZM396.8,472.763c2.272.757,4.544,1.262,6.816,2.02l8.836,2.272a73.9,73.9,0,0,0-1.767-12.118,127.515,127.515,0,0,0-13.38-3.029l-6.816-2.272a77.84,77.84,0,0,1,6.311,13.127Zm59.578,98.708c-4.292.252-9.593-.252-15.4-.757,7.826,2.524,16.157,6.816,24.488,11.36L468,583.336c4.8-.757,14.642-1.515,22.468-2.02-.5-.5-1.262-1.01-1.767-1.515a25.621,25.621,0,0,1-4.8-6.816L481.88,574c-9.845,4.544-18.934,2.525-25.5-2.524Zm-29.789-2.777c-5.049-.757-9.845-1.515-14.39-2.524-4.8,3.282-9.846,6.311-14.895,9.088,4.039.757,8.583,2.02,13.885,2.777h.252l3.534-5.3a26.131,26.131,0,0,1,11.613-4.292ZM561.4,365.22c9.341.252,18.176,0,28.274-.5a135.407,135.407,0,0,0-32.313-11.36l-.757-.252c-5.049-.252-10.35-.5-16.157-1.01l.5-1.262-3.029-.252a60.845,60.845,0,0,0-9.593,0l-.252.5-2.777-.5a52.048,52.048,0,0,0-6.564.757,68.747,68.747,0,0,0-10.855,2.777,75.9,75.9,0,0,1-14.137,3.282c6.564,1.515,13.127,2.777,18.429,3.534a108.374,108.374,0,0,1,47.965,4.039l1.01.252ZM360.7,423.031l2.524-4.292a53.2,53.2,0,0,1-11.36-4.544l-1.01,1.767a61.989,61.989,0,0,1,9.846,7.321ZM410.437,293.02c-5.049,34.333-19.439,52-34.586,75.482C403.116,356.889,420.535,321.546,410.437,293.02Zm42.916,54.024,5.554,1.767c3.534,1.01,10.1,2.777,17.671,4.8a28.866,28.866,0,0,1-4.292-3.787l-1.767-2.272a18.771,18.771,0,0,1-1.767-6.564l-1.262-.252c-1.515-1.262-6.059-2.777-11.108-4.292a101.153,101.153,0,0,1-3.029,10.855ZM57.261,268.28a72.247,72.247,0,0,0,5.554,7.573c10.1,13.127,30.546,26,39.13,37.615,5.806,7.826,1.515,15.4-3.282,55.286-2.02,17.671-2.272,33.323-3.029,51.247-9.845-4.8-24.488-21.711-32.818-30.041-11.36-12.37-15.4-10.855-15.9-33.828-.252-16.157,1.01-81.541,9.846-87.852Zm4.8-11.36c-1.767-2.524-2.02-5.806.5-13.885A311.742,311.742,0,0,1,73.417,213.5c6.816-14.642,12.622-27.517,20.448-40.392,5.3-8.836,18.429-29.537,24.488-34.586,7.321,8.078,12.37,18.429,20.2,26,4.544,4.544,7.069,7.826,11.36,12.622,4.039,4.292,7.826,6.816,11.36,11.36-8.331,8.078-46.7,74.725-52,118.146C94.623,291,74.175,274.843,62.31,256.92ZM118.1,538.4c-4.292-7.069-10.855-13.38-16.662-21.711-5.3-7.826-10.6-15.9-15.652-23.73,1.767.252,23.225,19.439,26,22.468,1.767,1.767,14.642,28.022,15.9,31.556-3.787-3.282-4.292-5.3-9.593-8.836ZM64.834,449.286c-4.544-12.118-11.865-37.867-13.127-52.257,4.292,2.524,10.1,10.35,14.895,14.39,5.3,4.8,28.527,22.72,29.789,27.517L98.41,455.6c1.767,13.127,5.049,26.255,7.826,38.372-11.613-9.593-36.858-33.323-41.149-44.936ZM44.891,422.021c-.252-2.272-6.816-40.139-7.321-41.4-1.515-4.292-15.9-22.216-19.691-28.527,2.272,16.914,18.176,58.821,27.012,69.928ZM543.982,203.148c.5,3.029.757,6.059,1.01,9.088H556.6c-.252-2.777-.252-6.059-.252-9.341-4.039,0-8.331.252-12.622.252Zm1.767,55.791a354.388,354.388,0,0,1-6.311,46.451c4.292.252,8.331.252,12.37.5,1.767-9.088,3.029-18.176,4.292-27.517,1.01-7.321,1.515-13.885,2.02-19.439h-12.37ZM304.913,75.156a261.391,261.391,0,0,1,39.635-13.38c21.458-5.554,34.333-6.816,56.3-8.331a122.188,122.188,0,0,1,23.478.252c-3.029,2.524-5.554,3.534-9.341,6.311-18.934,14.39-41.4,36.1-53.772,56.3-12.875-4.8-46.2-31.051-56.044-41.149ZM324.6,55.97c-11.108,4.292-21.711,9.088-28.274,11.108-4.8-6.564-15.147-16.409-18.176-26.76,13.127-5.554,64.879-7.826,81.036-6.564,11.865.5,44.684,1.515,54.024,8.331-3.787.252-11.108.252-15.9.5C372.569,43.853,347.577,46.629,324.6,55.97Zm-10.35-32.818L275.124,28.2c-.5-26.76,44.431-24.74,62.86-22.468,24.74,3.029,66.647,12.622,84.823,26.507-28.779-.252-45.441-11.865-108.553-9.088ZM188.786,151.4c-8.331,9.846-17.671,23.225-21.206,26.507-8.078-6.311-36.1-38.372-40.9-50.995,24.488-32.818,76.492-63.365,116.379-77.754,6.059-2.272,14.895-5.3,21.711-6.311,2.777,3.029,6.816,11.108,9.845,15.4a157.313,157.313,0,0,0,11.108,13.885c-1.01,1.262-36.605,22.468-48.47,32.061-16.409,14.39-34.081,29.789-48.218,46.956Z" transform="translate(0.029 -0.003)" fill-rule="evenodd" fill="url(#linear-gradient)"/>
  </g>
</svg>
