<svg id="logo_icon_y" xmlns="http://www.w3.org/2000/svg" width="126.247" height="126.247" viewBox="0 0 126.247 126.247">
  <g id="_2289384589520" transform="translate(0 0)">
    <path id="Path_23" data-name="Path 23" d="M104.985,126.247H21.262A21.258,21.258,0,0,1,0,104.985V21.262A21.258,21.258,0,0,1,21.262,0h83.722a21.258,21.258,0,0,1,21.262,21.262v83.722A21.258,21.258,0,0,1,104.985,126.247Z" transform="translate(0 0)" fill="gold"/>
    <g id="Group_1" data-name="Group 1" transform="translate(37.337 23.671)">
      <path id="Path_24" data-name="Path 24" d="M83.022,87.357a27.86,27.86,0,1,1-23.5-45.291c.6-.033,1.216-.056,1.818-.056A27.789,27.789,0,0,1,82.944,52.3a9.232,9.232,0,0,1-7.2,15.026H75.3a9.228,9.228,0,0,1-7.05-3.28,9.047,9.047,0,1,0-8.043,14.8,9.727,9.727,0,0,0,1.127.078,9.055,9.055,0,0,0,6.872-3.157,9.228,9.228,0,0,1,6.983-3.347h.569a9.219,9.219,0,0,1,7.251,14.937Z" transform="translate(-33.468 -18.816)" fill="#3f2317"/>
      <path id="Path_25" data-name="Path 25" d="M71.711,38.6A12.337,12.337,0,0,1,69.8,39.872c-.346.2-.29.413-.223.692a1.661,1.661,0,0,1-1.952,2.053,30.184,30.184,0,0,0-6.292-.658c-.591,0-1.238.022-1.975.067a30.115,30.115,0,0,0-13.855,4.406,2.582,2.582,0,0,1-1.629.424.729.729,0,0,0-.156,0,9.449,9.449,0,0,1-8.489-4.183A9.77,9.77,0,0,1,43.3,27.367a.85.85,0,0,0,.647-.357,11.158,11.158,0,0,1,3.782-3.983,11.277,11.277,0,0,1,4.685-1.718,11.551,11.551,0,0,1,5.053.469,19.3,19.3,0,0,1,2.186.993.724.724,0,0,0,.814.045,8.578,8.578,0,0,1,3.347-1.249,9.817,9.817,0,0,1,4.652.379,9.614,9.614,0,0,1,4.908,3.626,8.943,8.943,0,0,1,1.562,3.469A9.607,9.607,0,0,1,71.7,38.612Z" transform="translate(-33.469 -21.219)" fill="#3f2317"/>
    </g>
  </g>
</svg>
