<svg xmlns="http://www.w3.org/2000/svg" width="207.565" height="43.121" viewBox="0 0 207.565 43.121">
  <g id="logo" transform="translate(-264.653 -502.578)">
    <path id="Path_64" data-name="Path 64" d="M1141.584,975.125a5.242,5.242,0,1,1,4.948-5.234A5.094,5.094,0,0,1,1141.584,975.125Zm0-20.455a15.227,15.227,0,1,0,14.83,15.222A15.025,15.025,0,0,0,1141.584,954.67Z" transform="translate(-833.554 -439.415)" fill="#3f2317"/>
    <path id="Path_65" data-name="Path 65" d="M1639.244,975.125a5.242,5.242,0,1,1,4.948-5.234A5.094,5.094,0,0,1,1639.244,975.125Zm0-20.455a15.227,15.227,0,1,0,14.83,15.222A15.025,15.025,0,0,0,1639.244,954.67Z" transform="translate(-1300.163 -439.415)" fill="#3f2317"/>
    <path id="Path_66" data-name="Path 66" d="M2143.717,977.08a4.636,4.636,0,0,1-3.626,7.525h-.179a4.642,4.642,0,0,1-3.712-1.859l-3.971-5.313v2.617a5.074,5.074,0,1,1-10.148,0v-20.3a5.074,5.074,0,1,1,10.148,0v3.208l4.43-5.858a4.64,4.64,0,0,1,3.7-1.833l.551.033a2.985,2.985,0,0,1,.345.053.273.273,0,0,1,.073.014l.086.02a.092.092,0,0,1,.04.006,3.1,3.1,0,0,1,.351.1l.465.179a3.034,3.034,0,0,1,.385.193,4.6,4.6,0,0,1,1.056.83,5.02,5.02,0,0,1,.545.7l.239.425a2.672,2.672,0,0,1,.139.306l.173.478a4.345,4.345,0,0,1,.106.432l.086.89a4.583,4.583,0,0,1-.95,2.776l-5.751,7.584,5.419,6.794Z" transform="translate(-1766.773 -439.424)" fill="#3f2317"/>
    <path id="Path_67" data-name="Path 67" d="M2519.527,979.933a9.347,9.347,0,0,1-12.552,4.191l-1.707-.85a4.171,4.171,0,0,1-1.866-5.6l.007-.014a4.175,4.175,0,0,1,5.584-1.879l.06.033.85.425a1.158,1.158,0,0,0,.491.113,1,1,0,0,0,.459-1.892l-4.15-2.052a9.359,9.359,0,1,1,8.368-16.743l1.7.85a4.176,4.176,0,0,1-3.733,7.472l-1.016-.512a1.045,1.045,0,0,0-.445-.106,1.009,1.009,0,0,0-.452,1.912l4.21,2.1a9.363,9.363,0,0,1,4.191,12.559Z" transform="translate(-2122.542 -439.415)" fill="#3f2317"/>
    <path id="Path_68" data-name="Path 68" d="M2830.643,959.744a5.073,5.073,0,0,1-5.074,5.074h-2.511V980.04a5.074,5.074,0,0,1-10.148,0V964.818h-2.517a5.074,5.074,0,1,1,0-10.148h15.175a5.074,5.074,0,0,1,5.074,5.074Z" transform="translate(-2407.383 -439.415)" fill="#3f2317"/>
    <path id="Path_69" data-name="Path 69" d="M3253.875,980.544a4.568,4.568,0,0,1-4.569,4.569h-11.668a4.061,4.061,0,0,1-4.058-4.057V958.727a4.061,4.061,0,0,1,4.058-4.057h11.668a4.566,4.566,0,1,1,0,9.132h-5.3v2.032h4.336a4.058,4.058,0,1,1,0,8.116h-4.336v2.032h5.3a4.567,4.567,0,0,1,4.569,4.563Z" transform="translate(-2808.922 -439.415)" fill="#3f2317"/>
    <path id="Path_70" data-name="Path 70" d="M696.2,979.429a15.224,15.224,0,1,1-12.844-24.747c.332-.017.664-.031,1-.031a15.2,15.2,0,0,1,11.811,5.617,5.043,5.043,0,0,1-3.933,8.209h-.245a5.022,5.022,0,0,1-2.138-.477,4.247,4.247,0,0,1-1.572-1.355,4.85,4.85,0,0,0-3.9-2.008,4.968,4.968,0,0,0-4.67,3.532c-.021.052-.035.108-.052.161a4.982,4.982,0,0,0,.077,3.319.06.06,0,0,0,.007.021,4.968,4.968,0,0,0,4.639,3.434,4.848,4.848,0,0,0,3.9-2.022,4.128,4.128,0,0,1,1.3-1.2,4.838,4.838,0,0,1,2.339-.61h.311a5.038,5.038,0,0,1,3.965,8.16Z" transform="translate(-404.473 -439.396)" fill="#3f2317"/>
    <path id="Path_71" data-name="Path 71" d="M690.027,760.986a6.291,6.291,0,0,1-1.044.693c-.188.107-.161.226-.12.376a.906.906,0,0,1-1.064,1.122,16.61,16.61,0,0,0-3.44-.358c-.326,0-.676.012-1.076.035a16.4,16.4,0,0,0-7.5,2.37,2.046,2.046,0,0,1-1.034.273h-.006a5.171,5.171,0,0,1-4.641-2.286,5.34,5.34,0,0,1,4.407-8.368.484.484,0,0,0,.356-.195,6.1,6.1,0,0,1,2.066-2.174,6.157,6.157,0,0,1,2.56-.938,6.367,6.367,0,0,1,2.763.255,10.5,10.5,0,0,1,1.2.542.393.393,0,0,0,.444.022,4.6,4.6,0,0,1,1.826-.682,5.392,5.392,0,0,1,2.545.21,5.274,5.274,0,0,1,2.681,1.981,4.881,4.881,0,0,1,.854,1.894,5.249,5.249,0,0,1-1.768,5.229Z" transform="translate(-404.48 -248.908)" fill="#3f2317"/>
    <path id="Path_72" data-name="Path 72" d="M3594.18,969.924H3591.4V964.7h2.783a2.613,2.613,0,0,1,0,5.227Zm9.809,5.7a12.632,12.632,0,0,0-9.517-20.953l-8.282.007a5.076,5.076,0,0,0-4.941,5.067v20.3a5.074,5.074,0,0,0,10.148,0v-.087h2.962v-.006a.652.652,0,0,0,.113.006c.273,0,.538-.013.8-.027l1.733,2.856a4.839,4.839,0,1,0,8.275-5.021l-1.3-2.138Z" transform="translate(-3134.899 -439.415)" fill="#3f2317"/>
  </g>
</svg>
