<svg xmlns="http://www.w3.org/2000/svg" width="51.212" height="52.968" viewBox="0 0 51.212 52.968">
  <g id="shop" transform="translate(1.006 1)">
    <path id="Path_112" data-name="Path 112" d="M3.01,11.22V22.662C3.01,34.1,7.6,38.692,19.039,38.692H32.775C44.218,38.692,48.8,34.1,48.8,22.662V11.22" transform="translate(-1.256 12.276)" fill="none" stroke="#000" stroke-linecap="round" stroke-linejoin="round" stroke-width="2"/>
    <path id="Path_113" data-name="Path 113" d="M16.67,27.484a7.556,7.556,0,0,0,7.645-8.461L22.633,2h-11.9L9.025,19.023A7.556,7.556,0,0,0,16.67,27.484Z" transform="translate(7.994 -2)" fill="none" stroke="#000" stroke-linecap="round" stroke-linejoin="round" stroke-width="2"/>
    <path id="Path_114" data-name="Path 114" d="M24.519,27.484a8.3,8.3,0,0,0,8.41-9.3l-.714-7.008C31.3,4.548,28.749,2,22.073,2H14.3l1.784,17.864A8.684,8.684,0,0,0,24.519,27.484Z" transform="translate(16.225 -2)" fill="none" stroke="#000" stroke-linecap="round" stroke-linejoin="round" stroke-width="2"/>
    <path id="Path_115" data-name="Path 115" d="M10.778,27.484a8.639,8.639,0,0,0,8.41-7.62l.561-5.632L20.971,2H13.2C6.522,2,3.973,4.548,3.056,11.174l-.688,7.008A8.3,8.3,0,0,0,10.778,27.484Z" transform="translate(-2.322 -2)" fill="none" stroke="#000" stroke-linecap="round" stroke-linejoin="round" stroke-width="2"/>
    <path id="Path_116" data-name="Path 116" d="M15.871,17C11.615,17,9.5,19.115,9.5,23.371v6.371H22.242V23.371C22.242,19.115,20.127,17,15.871,17Z" transform="translate(8.793 21.226)" fill="none" stroke="#000" stroke-linecap="round" stroke-linejoin="round" stroke-width="2"/>
  </g>
</svg>
